<svg xmlns="http://www.w3.org/2000/svg" width="226.392" height="149.269" viewBox="0 0 226.392 149.269">
  <g id="Layer_1" transform="translate(2 2)">
    <path id="Path_2264" data-name="Path 2264" d="M1141.808,221.121q-2.989-.053-6.1-.054c-45.344,0-59.043,3.852-61.027,4.249-.873-1.032-1.905-1.429-4.286-1.032-2.7-1.587-5.4-3.572-5.4-3.572l-1.746.08,1.826,4.366a3.091,3.091,0,0,0-.794,2.3c-16.193,2.143-67.868,25.56-69.138,26.115a14.518,14.518,0,0,0-5.953,1.032c-3.255,1.27-7.541.714-13.495,1.349s-12.78,1.191-15,1.191-7.224-.318-9.287.635a15.28,15.28,0,0,0-3.651,2.461s-.08,3.334-.159,3.969c-.635,1.508-4.366,7.382-3.969,9.922l-1.19.714-.08,2.937,4.6,5.477s-1.508,10-2.3,11.033c.079,2.381.317,4.207-1.112,5.318s-5.953,3.969-5.953,3.969l.635,10.16-1.27,1.984.079,1.667.556,1.27-2.064,3.016,2.7,3.016.476,2.937,1.826,1.508s-.159,1.429,2.7,2.223,11.272,2.7,11.272,2.7l.635.556,12.145,2.778.556.635,25.083,4.842,3.311-3.285,2.474-.33s7.752,26.721,34.308,26.721,32.494-20.123,32.494-20.123l3.959-2.309,4.453.165.839,1.861s37.863-2.223,53.183-2.223c4.563,0,15.468.042,29.372.165" transform="translate(-935.534 -220.712)" fill="none" stroke="#31d98a" stroke-linejoin="round" stroke-miterlimit="10" stroke-width="4"/>
    <path id="Path_2265" data-name="Path 2265" d="M1073.3,280.185c-29.519-1.058-54.685-1.9-59.5-1.9-12.983,0-67.159-1.282-70.364-1.282s-11.54.321-11.54-2.4,4.007-3.686,30.454-15.067c33.98-15.387,59.144-17.15,90.079-18.593q5.8-.27,11.293-.257l.087.256,9.3,38.949,5.129,16.189s2.084,19.394.481,37.506l-.16,5.45-.16,6.411-.16,6.411v.076c-24.425-.569-43.531-1.043-46.642-1.2-9.617-.481-18.433.962-23.882-7.213s-23.081-35.743-28.05-44.238-8.975-12.342-5.289-17.471,21.959-34.141,21.959-34.141" transform="translate(-856.519 -235.109)" fill="none" stroke="#31d98a" stroke-miterlimit="10" stroke-width="3"/>
    <path id="Path_2266" data-name="Path 2266" d="M1543.84,480.822s-33.531-7.779-37.556-9.121-4.334-3.405-2.064-10.113" transform="translate(-1480.346 -394.375)" fill="none" stroke="#31d98a" stroke-miterlimit="10" stroke-width="3"/>
    <path id="Path_2267" data-name="Path 2267" d="M1594.528,399.832h25.385c3.921,0,4.85.722,1.754,4.024s-9.184,9.906-10.526,11.454l-1.342,1.548-5.882-.206-1.548-2.993-5.469-.516" transform="translate(-1585.616 -349.851)" fill="none" stroke="#31d98a" stroke-miterlimit="10" stroke-width="3"/>
    <path id="Path_2268" data-name="Path 2268" d="M1645.711,572.4s-17.21-19.806-19.614-22.5-4.615-3.653-9.134-3.653" transform="translate(-1614.07 -455.41)" fill="none" stroke="#31d98a" stroke-miterlimit="10" stroke-width="3"/>
    <path id="Path_2269" data-name="Path 2269" d="M1679.7,582.425s-8.386-10.593-10.694-13-4.135-3.75-6.634-4.23" transform="translate(-1660.724 -469.073)" fill="none" stroke="#31d98a" stroke-miterlimit="10" stroke-width="3"/>
    <path id="Path_2270" data-name="Path 2270" d="M1053.349,293.5l-54.128-1.586s-2.875-7.138-2.875-10.409,4.857-9.616,5.651-10.112,22.306-4.957,38.961-4.659c5.551.1,6.84-.1,8.129,3.866S1053.349,293.5,1053.349,293.5Z" transform="translate(-848.533 -253.879)" fill="none" stroke="#31d98a" stroke-miterlimit="10" stroke-width="3"/>
    <path id="Path_2271" data-name="Path 2271" d="M1202.177,420.066s8.141.914,6.729-1.828-8.889-3.9-13.458-3.9-12.462-.083-12.462,2.908,7.394,2.575,7.394,2.575S1196.611,423.8,1202.177,420.066Z" transform="translate(-1056.334 -360.306)" fill="none" stroke="#31d98a" stroke-miterlimit="10" stroke-width="3"/>
    <line id="Line_10" data-name="Line 10" x1="70.683" y1="1.968" transform="translate(151.189 108.411)" fill="none" stroke="#31d98a" stroke-miterlimit="10" stroke-width="3"/>
    <path id="Path_2272" data-name="Path 2272" d="M934.075,561.984s41.86,1.72,79.775,3.323" transform="translate(-791.658 -466.756)" fill="none" stroke="#31d98a" stroke-miterlimit="10" stroke-width="3"/>
    <line id="Line_11" data-name="Line 11" x1="14.726" y1="0.427" transform="translate(138.398 110.51)" fill="none" stroke="#31d98a" stroke-miterlimit="10" stroke-width="3"/>
    <ellipse id="Ellipse_134" data-name="Ellipse 134" cx="28.462" cy="28.462" rx="28.462" ry="28.462" transform="translate(69.274 81.275)" fill="none" stroke="#31d98a" stroke-miterlimit="10" stroke-width="3"/>
    <path id="Path_2276" data-name="Path 2276" d="M1312.651,520.813a41.2,41.2,0,1,0-78.664-2.049" transform="translate(-1175.903 -397.786)" fill="none" stroke="#31d98a" stroke-miterlimit="10" stroke-width="4.343"/>
    <path id="Path_2277" data-name="Path 2277" d="M1320.855,535.774a35.64,35.64,0,1,0-64.485,2.529" transform="translate(-1190.282 -412.165)" fill="none" stroke="#31d98a" stroke-miterlimit="10" stroke-width="3.756"/>
    <path id="Path_2278" data-name="Path 2278" d="M1331.356,565.068a25.87,25.87,0,0,1-16.166,7.706l.716-19.252Zm-30.155,5.087a26.04,26.04,0,0,1-12.629-13.9l19.435-5.227Zm34.891-34.662a26.025,26.025,0,0,1,1.723,18.348l-18.363-7.665Zm-39.682-8.679,10.432,18.12-19.742-1.627A25.916,25.916,0,0,1,1296.409,526.814Zm29.8-2.1-11.316,13.48-4.688-17.082q1.279-.127,2.591-.128A25.826,25.826,0,0,1,1326.208,524.716Z" transform="translate(-1215.06 -437.198)" fill="none" stroke="#31d98a" stroke-miterlimit="10" stroke-width="3"/>
    <ellipse id="Ellipse_135" data-name="Ellipse 135" cx="1.279" cy="1.279" rx="1.279" ry="1.279" transform="translate(100.557 104.511)" fill="none" stroke="#31d98a" stroke-miterlimit="10" stroke-width="3"/>
    <ellipse id="Ellipse_136" data-name="Ellipse 136" cx="1.278" cy="1.278" rx="1.278" ry="1.278" transform="translate(94.069 103.267)" fill="none" stroke="#31d98a" stroke-miterlimit="10" stroke-width="3"/>
    <ellipse id="Ellipse_137" data-name="Ellipse 137" cx="1.279" cy="1.279" rx="1.279" ry="1.279" transform="translate(90.751 109.369)" fill="none" stroke="#31d98a" stroke-miterlimit="10" stroke-width="3"/>
    <ellipse id="Ellipse_138" data-name="Ellipse 138" cx="1.279" cy="1.279" rx="1.279" ry="1.279" transform="translate(95.343 113.754)" fill="none" stroke="#31d98a" stroke-miterlimit="10" stroke-width="3"/>
    <ellipse id="Ellipse_139" data-name="Ellipse 139" cx="1.278" cy="1.278" rx="1.278" ry="1.278" transform="translate(101.18 110.91)" fill="none" stroke="#31d98a" stroke-miterlimit="10" stroke-width="3"/>
    <ellipse id="Ellipse_140" data-name="Ellipse 140" cx="2.701" cy="2.701" rx="2.701" ry="2.701" transform="translate(94.791 106.991)" fill="none" stroke="#31d98a" stroke-miterlimit="10" stroke-width="3"/>
    <ellipse id="Ellipse_141" data-name="Ellipse 141" cx="1.279" cy="1.279" rx="1.279" ry="1.279" transform="translate(100.557 104.511)" fill="none" stroke="#31d98a" stroke-miterlimit="10" stroke-width="3"/>
    <ellipse id="Ellipse_142" data-name="Ellipse 142" cx="1.278" cy="1.278" rx="1.278" ry="1.278" transform="translate(94.069 103.267)" fill="none" stroke="#31d98a" stroke-miterlimit="10" stroke-width="3"/>
    <ellipse id="Ellipse_143" data-name="Ellipse 143" cx="1.279" cy="1.279" rx="1.279" ry="1.279" transform="translate(90.751 109.369)" fill="none" stroke="#31d98a" stroke-miterlimit="10" stroke-width="3"/>
    <ellipse id="Ellipse_144" data-name="Ellipse 144" cx="1.279" cy="1.279" rx="1.279" ry="1.279" transform="translate(95.343 113.754)" fill="none" stroke="#31d98a" stroke-miterlimit="10" stroke-width="3"/>
    <ellipse id="Ellipse_145" data-name="Ellipse 145" cx="1.278" cy="1.278" rx="1.278" ry="1.278" transform="translate(101.18 110.91)" fill="none" stroke="#31d98a" stroke-miterlimit="10" stroke-width="3"/>
    <ellipse id="Ellipse_146" data-name="Ellipse 146" cx="2.701" cy="2.701" rx="2.701" ry="2.701" transform="translate(94.791 106.991)" fill="none" stroke="#31d98a" stroke-miterlimit="10" stroke-width="3"/>
    <path id="Path_2279" data-name="Path 2279" d="M1302.826,289.082l-11.965,19.349s-26.322-.068-28.168.068-1.709-1.026,1.231-2.6,24.271-11.76,30.9-14.084S1302.826,289.082,1302.826,289.082Z" transform="translate(-1171.991 -270.004)" fill="none" stroke="#31d98a" stroke-miterlimit="10" stroke-width="3"/>
  </g>
</svg>
