<svg xmlns="http://www.w3.org/2000/svg" width="187.159" height="136.173" viewBox="0 0 187.159 136.173">
  <g id="Frontside" transform="translate(2.159 1.99)">
    <path id="Path_15078" data-name="Path 15078" d="M42.628,135.64s.276,12.881-5.911,12.881H23.868c-3.256,0-7.439-.411-7.865-16.24s-.551-21.074-.551-26.221.1-19.6,1.177-27.091c.276-1.933.351-2.755,1.127-3.577.776-.8,2.73-3.093,3.832-4.326a17.954,17.954,0,0,0,1.653-2.1,8.272,8.272,0,0,1,2.53-4.012c2-1.764,3.256-2.32,3.857-2.948a9.037,9.037,0,0,0,1.3-1.619c-1.778-1.523-4.158-3.359-4.158-3.359s-5.861.483-8.165-.532a12.628,12.628,0,0,1-3.782-2.3c-.125-.7-.626-3.891-.626-3.891a28.483,28.483,0,0,1,16.28-5.22c.551,0,2.179-.1,2.179,1.909s-.15,7.323-.15,7.323l1.077,2.344a8.635,8.635,0,0,1,1.753-2.127c1.5-2.8,8.466-16.6,10.92-20.518s5.861-9.353,8.19-11.7,3.957-3.553,4.659-3.673,1.553.169,4.433-.1S86.91,16.618,92.67,16.618s37.144-.628,57.582,2.248a4.1,4.1,0,0,1,3.607.508,36.332,36.332,0,0,1,6.036,6.4,216.319,216.319,0,0,1,11.521,19.116c3.481,6.791,4.934,9.957,4.934,9.957l1.5,1.668,1.1-2.489s-.1-6.235-.15-7.371.476-1.619,2.88-1.619a33.288,33.288,0,0,1,15.2,4.761c.551.362.326,1.837.2,2.683-.175,1.184,0,1.547-1.453,2.513a11.481,11.481,0,0,1-5.961,2.078c-2.254,0-4.884.073-4.884.073l-4.032,3.118a2.911,2.911,0,0,0,1.5,2.054c1.4.846,5.059,3.214,5.936,6.622a58.226,58.226,0,0,0,5.836,6.743c.426.459,1.2,4.737,1.352,6.622a380.761,380.761,0,0,1,.4,39.247c-.125,3.432.125,16.482-2.054,22.838-.275.773-.952,3.746-5.56,3.988a120.721,120.721,0,0,1-12.523.29c-2-.242-5.059-.846-5.811-5.993s-.952-6.888-.952-6.888-45.509.532-62.165.532C90.015,136.316,42.628,135.64,42.628,135.64Z" transform="translate(-14.2 -16.56)" fill="none" stroke="#31d98a" stroke-miterlimit="10" stroke-width="4"/>
    <path id="Path_15079" data-name="Path 15079" d="M81.13,281.22s-9.7,5.121-12.107,6.215c-2.039.92-2.884.7-5.121.7-1.318,0-2.859-.174-3.779-.174s-2.237.721-4.276,1.666-4.1,2.138-6.389,1.939S38,289.6,38,289.6s-.522-7.781.82-12.878c.224-.895.895-1.914,3.132-1.143,2.237.8,7.309,1.268,11.336,1.889S81.13,281.22,81.13,281.22Z" transform="translate(-32.007 -213.018)" fill="none" stroke="#31d98a" stroke-miterlimit="10" stroke-width="2"/>
    <path id="Path_15080" data-name="Path 15080" d="M547.9,281.22s9.7,5.121,12.107,6.215c2.038.92,2.884.7,5.121.7,1.317,0,2.859-.174,3.779-.174s2.237.721,4.276,1.666,4.1,2.138,6.389,1.939c2.262-.2,11.46-1.964,11.46-1.964s.522-7.781-.82-12.878c-.224-.895-.9-1.914-3.132-1.143s-7.309,1.268-11.336,1.889C571.716,278.113,547.9,281.22,547.9,281.22Z" transform="translate(-413.86 -213.018)" fill="none" stroke="#31d98a" stroke-miterlimit="10" stroke-width="2"/>
    <path id="Path_15081" data-name="Path 15081" d="M251.459,85.642c3.268.1,6.409.249,4.776-2.859-1.76-3.356-9.3-19.142-10.054-20.758s-1.634-3.381-7.666-3.729c-35.817-2.113-79.3-.622-88.223,0-6.032.423-6.912,2.113-7.666,3.729s-8.295,17.4-10.054,20.758c-1.634,3.107,1.508,2.933,4.776,2.859C147.4,85.394,214.008,84.524,251.459,85.642Z" transform="translate(-102.809 -47.099)" fill="none" stroke="#31d98a" stroke-miterlimit="10" stroke-width="2"/>
    <path id="Path_15082" data-name="Path 15082" d="M264.108,346.825c4.636,0,5.921-.721,7.055-2.735,1.109-2.014,7.231-18.4,7.609-21.877s.554-5.121-.731-5.842-4.258-2.735-9.1-5.121c-4.813-2.387-4.636-2.014-7.408-2.014H194.591c-2.772,0-2.6-.373-7.408,2.014s-7.786,4.4-9.1,5.121-1.109,2.387-.731,5.842c.378,3.48,6.5,19.863,7.609,21.877s2.419,2.735,7.055,2.735Z" transform="translate(-136.583 -239.265)" fill="none" stroke="#31d98a" stroke-miterlimit="10" stroke-width="2"/>
    <path id="Path_15083" data-name="Path 15083" d="M84.647,183.9s-6.265,10.441,1.044,25.009" transform="translate(-65.256 -143.72)" fill="none" stroke="#31d98a" stroke-miterlimit="10" stroke-width="2"/>
    <path id="Path_15084" data-name="Path 15084" d="M661.79,181.7s6.463,15.562-1.89,25.457" transform="translate(-498.017 -142.054)" fill="none" stroke="#31d98a" stroke-miterlimit="10" stroke-width="2"/>
    <path id="Path_15085" data-name="Path 15085" d="M48.062,421.443s13.35,1.094,17.2,1.367a7.181,7.181,0,0,0,4.176-.87c1.84-.87,3.381-1.318,3.381-2.237s-3.729-9.7-4.226-10.416-.3-1.069-2.66-1.541c-2.387-.472-17.5-2.859-18.222-2.958s-.622,1.442-.671,3.356c-.05,1.889-.2,10.118-.249,11.237C46.77,420.473,46.993,421.443,48.062,421.443Z" transform="translate(-38.69 -311.373)" fill="none" stroke="#31d98a" stroke-miterlimit="10" stroke-width="2"/>
    <path id="Path_15086" data-name="Path 15086" d="M632.961,421.443s-13.35,1.094-17.2,1.367a7.181,7.181,0,0,1-4.176-.87c-1.84-.87-3.381-1.318-3.381-2.237s3.729-9.7,4.226-10.416.3-1.069,2.66-1.541,17.5-2.859,18.222-2.958.622,1.442.671,3.356.2,10.118.248,11.237S634.03,421.443,632.961,421.443Z" transform="translate(-459.17 -311.373)" fill="none" stroke="#31d98a" stroke-miterlimit="10" stroke-width="2"/>
    <path id="Path_15087" data-name="Path 15087" d="M700.6,237.4a19.493,19.493,0,0,1-3.6,10.267" transform="translate(-525.894 -184.155)" fill="none" stroke="#31d98a" stroke-miterlimit="10" stroke-width="2"/>
    <path id="Path_15088" data-name="Path 15088" d="M46.1,237.8s1.765,8.527,4.326,10.69" transform="translate(-38.17 -184.464)" fill="none" stroke="#31d98a" stroke-miterlimit="10" stroke-width="2"/>
    <path id="Path_15089" data-name="Path 15089" d="M100,176.3a27.307,27.307,0,0,0,8.284,9.795c5.924,4.4,16.819,14.195,23.371,20.684,10.995.124,69.584-.621,77.014-.124,8.158-7.234,20.885-18.6,25.228-21.9a30.861,30.861,0,0,0,7.054-7.955" transform="translate(-78.67 -138.016)" fill="none" stroke="#31d98a" stroke-miterlimit="10" stroke-width="2"/>
    <path id="Path_15090" data-name="Path 15090" d="M211.3,299.125s2.461.075,5.32-.025" transform="translate(-161.923 -230.819)" fill="none" stroke="#31d98a" stroke-miterlimit="10" stroke-width="2"/>
    <line id="Line_122" data-name="Line 122" x2="4.997" y2="0.199" transform="translate(129.567 68.133)" fill="none" stroke="#31d98a" stroke-miterlimit="10" stroke-width="2"/>
    <path id="Path_15091" data-name="Path 15091" d="M629.1,500.006s11.485-.6,19.614-.87c4.077-.124,6.066-.547,7.806-2.536" transform="translate(-474.874 -381.053)" fill="none" stroke="#31d98a" stroke-miterlimit="10" stroke-width="2"/>
    <path id="Path_15092" data-name="Path 15092" d="M47.721,500.006s-11.485-.6-19.615-.87c-4.077-.124-6.066-.547-7.806-2.536" transform="translate(-18.784 -381.053)" fill="none" stroke="#31d98a" stroke-miterlimit="10" stroke-width="2"/>
    <path id="Path_15093" data-name="Path 15093" d="M178.137,297.7s-8.987,5.345-14.651,8.428c-2.794,1.541-.931,3.978-.151,7.657s6.52,19.167,7.93,22.548,3.424,3.828,7.451,4.3,72.5-.3,75.773-.3,5.438-.149,7.754-4.748,5.286-12.256,8.534-25.308c.6-2.411,1.385-2.759-2.945-5.519-4.355-2.759-12.209-7.458-12.209-7.458" transform="translate(-125.257 -230.368)" fill="none" stroke="#31d98a" stroke-miterlimit="10" stroke-width="2"/>
    <line id="Line_123" data-name="Line 123" x2="88.974" y2="0.124" transform="translate(46.742 99.623)" fill="none" stroke="#31d98a" stroke-miterlimit="10" stroke-width="2"/>
    <path id="Path_15094" data-name="Path 15094" d="M186.5,334.3s74.482.671,91.679.547" transform="translate(-140.351 -257.521)" fill="none" stroke="#31d98a" stroke-miterlimit="10" stroke-width="2"/>
    <path id="Path_15095" data-name="Path 15095" d="M95.6,172.817s3.083-.87,17.8-1.417" transform="translate(-75.364 -133.991)" fill="none" stroke="#31d98a" stroke-miterlimit="10" stroke-width="2"/>
    <path id="Path_15096" data-name="Path 15096" d="M614.6,171.9a58.067,58.067,0,0,1,12.852,1.815" transform="translate(-463.979 -134.374)" fill="none" stroke="#31d98a" stroke-miterlimit="10" stroke-width="2"/>
  </g>
</svg>
