<svg xmlns="http://www.w3.org/2000/svg" width="247.351" height="136.335" viewBox="0 0 247.351 136.335">
  <g id="Group_13422" data-name="Group 13422" transform="translate(-898.966 -628.889)">
    <path id="Path_15323" data-name="Path 15323" d="M33.864,16.243S50.075,15,63.991,15s45.98,1.2,65.562,5.5a65.389,65.389,0,0,1,13.366,4.615,261.58,261.58,0,0,1,27.951,17.55s7.006,1.889,10.544,5.4a4.157,4.157,0,0,1-1.076,1.722l4.519,3.658s38.328,3.85,49.853,9.062c0,0,13.438,2.869,21.232,11.668-.048.526-.287.6-.287.6a14.406,14.406,0,0,1,5.619,12.194c1.913,1.315,2.678,1.793,2.678,2.63s.67,7.173.67,7.651a6.014,6.014,0,0,0,.956,1.793s-.287,2.678-.909,3.4c-.048,1.865-.239,9.851-.191,11.764.717,2.582,2.917,6.695,1.865,7.843s-4.471,3.061-12.72,2.582c-1.626,1.482-4.782,2.391-9.755,2.271-2.2,2.869-6.982,9.205-17.694,9.995s-15.35,1-23.719-7.46c-13.27,1.387-38.926,4.3-42.321,4.017-2.343,1.913-3.3,2.63-14.633,2.439-2.989,4.184-7.532,10.712-18.6,11.286s-23.193,1.793-31.2-19.846l-4.113.478s-20.276-3.4-27.21-4.3c-6.312-.813-26.038-2.869-40.074-4.447" transform="translate(877.831 615.889)" fill="none" stroke="#31d98a" stroke-miterlimit="10" stroke-width="4"/>
    <path id="Path_15324" data-name="Path 15324" d="M545.433,291.2c-3.8,0-17.526-.837-18.961-.956s-1.793-1.554-2.773-2.845a76.552,76.552,0,0,1-5.141-7.938c-.717-1.6-1.028-3.276,2.582-3.037s17.6,1.028,22.81,1.483,30.414,2.391,30.414,2.391-5.81,6.5-9.277,6.958-8.512-.12-10.449.717S547.7,291.2,545.433,291.2Z" transform="translate(502.097 416.986)" fill="none" stroke="#31d98a" stroke-miterlimit="10" stroke-width="2"/>
    <path id="Path_15325" data-name="Path 15325" d="M204.4,48.968s16.522,17.287,25.488,31.657c14.753-.622,79.478-3.276,86.794-2.893-8.321-6.049-28.119-20.682-38.089-25.871A39.486,39.486,0,0,0,264.056,48.2C242.25,46.434,204.4,48.968,204.4,48.968Z" transform="translate(740.794 591.102)" fill="none" stroke="#31d98a" stroke-miterlimit="10" stroke-width="2"/>
    <path id="Path_15326" data-name="Path 15326" d="M758.4,294.135c-1.793.167-1.961.335-4.113,2.487s-2.654,2.821-3.682,3.778-.861,2.487-.1,5.212,5.643,20.3,6.5,22.165,2.056,2.152,3.85,2.152,24.054-1.291,40.145-2.821c3.491-.335,7.532.1,8.464-3.682s3.778-17.12,2.487-25.082c-3.778-3.084-8.13-6.241-9.253-6.5S758.4,294.135,758.4,294.135Z" transform="translate(325.735 405.256)" fill="none" stroke="#31d98a" stroke-miterlimit="10" stroke-width="2"/>
    <path id="Path_15327" data-name="Path 15327" d="M743.172,283.393s-6.073,6.432-7.365,7.532-.765,2.917,0,5.141,6.839,22.26,7.867,24.149,2.224,2.917,5.571,2.917,27.736-1.124,45.382-3.419c3.348-.43,4.447-1.961,5.212-5.212s3.587-17.885,1.793-24.915c0,0,1.291-1.2-10.449-9.086a110.673,110.673,0,0,1-14.992,1.53C769.425,282.174,743.172,283.393,743.172,283.393Z" transform="translate(337.043 413.87)" fill="none" stroke="#31d98a" stroke-miterlimit="10" stroke-width="2"/>
    <path id="Path_15328" data-name="Path 15328" d="M754.3,317.847s45.19-1.506,59.584-3.347" transform="translate(322.376 387.999)" fill="none" stroke="#31d98a" stroke-miterlimit="10" stroke-width="2"/>
    <path id="Path_15329" data-name="Path 15329" d="M772.5,405.793s44.617-2.487,55.448-3.993" transform="translate(308.529 321.574)" fill="none" stroke="#31d98a" stroke-miterlimit="10" stroke-width="2"/>
    <path id="Path_15330" data-name="Path 15330" d="M730.6,291.2s6.838.406,14.49.048" transform="translate(340.41 405.729)" fill="none" stroke="#31d98a" stroke-miterlimit="10" stroke-width="2"/>
    <path id="Path_15331" data-name="Path 15331" d="M396.393,210.83s-10.664-7.245-20.037-10.09a370.478,370.478,0,0,0-46.864-10.162c-16.5-2.3-38.711-4.734-43.373-5a36.638,36.638,0,0,0-7.819.311" transform="translate(684.564 486.147)" fill="none" stroke="#31d98a" stroke-miterlimit="10" stroke-width="2"/>
    <path id="Path_15332" data-name="Path 15332" d="M303.5,186.4s.55,2.439,6.432,3.3,25.417,3.371,33.737,5.212,19.583,3.419,35.316,14.442" transform="translate(665.389 485.47)" fill="none" stroke="#31d98a" stroke-miterlimit="10" stroke-width="2"/>
    <path id="Path_15333" data-name="Path 15333" d="M266.9,214.5s39.356,3.706,52.531,7.866,19.606,7.388,19.606,7.388" transform="translate(693.238 464.09)" fill="none" stroke="#31d98a" stroke-miterlimit="10" stroke-width="2"/>
    <path id="Path_15334" data-name="Path 15334" d="M906.8,215.8c.383.191,13.868,4.5,15.087,15.446" transform="translate(206.34 463.1)" fill="none" stroke="#31d98a" stroke-miterlimit="10" stroke-width="2"/>
    <path id="Path_15335" data-name="Path 15335" d="M976.093,266.9A9.583,9.583,0,0,1,971,270.415" transform="translate(157.49 424.218)" fill="none" stroke="#31d98a" stroke-miterlimit="10" stroke-width="2"/>
    <path id="Path_15336" data-name="Path 15336" d="M1004.6,302.663a4.69,4.69,0,0,0,1.865-1.363" transform="translate(131.924 398.044)" fill="none" stroke="#31d98a" stroke-miterlimit="10" stroke-width="2"/>
    <path id="Path_15337" data-name="Path 15337" d="M1014.617,381.8a15.69,15.69,0,0,0-4.017,4.256" transform="translate(127.359 336.792)" fill="none" stroke="#31d98a" stroke-miterlimit="10" stroke-width="2"/>
    <path id="Path_15338" data-name="Path 15338" d="M1004.8,429.2s1.315,3.06,2.534,3.06,2.654-2.821,2.654-2.821" transform="translate(131.772 300.725)" fill="none" stroke="#31d98a" stroke-miterlimit="10" stroke-width="2"/>
    <path id="Path_15339" data-name="Path 15339" d="M53.978,167.1c-6.5-.55-13.509-1.124-20.778-1.7" transform="translate(871.06 501.45)" fill="none" stroke="#31d98a" stroke-miterlimit="10" stroke-width="2"/>
    <path id="Path_15340" data-name="Path 15340" d="M239.664,183.319s-4.854-.478-12.864-1.219" transform="translate(723.75 488.743)" fill="none" stroke="#31d98a" stroke-miterlimit="10" stroke-width="2"/>
    <path id="Path_15341" data-name="Path 15341" d="M83.534,136.806S39.3,130.23,16.656,126.883l-1.124-5.452,1.53-5.021s-.406-1.745-1.028-4.71c-.932-5.428-.622-25.632-.5-31.275,0-3.4,2.654-12.314,2.654-12.314a11,11,0,0,1,1.937-2.558C21.438,56.084,27.918,35,27.918,35v-.1c7.6.1,19.463,2.056,25.512,5.978,4.734,3.061,10.305,9.54,14.968,16.379s9.468,14.035,9.468,14.035" transform="translate(884.614 600.746)" fill="none" stroke="#31d98a" stroke-miterlimit="10" stroke-width="2"/>
    <path id="Path_15342" data-name="Path 15342" d="M263.674,187.1a50.221,50.221,0,0,0-4.567,17.144c-.143,10.855.287,47.175.287,47.175" transform="translate(699.19 484.938)" fill="none" stroke="#31d98a" stroke-miterlimit="10" stroke-width="2"/>
    <path id="Path_15343" data-name="Path 15343" d="M16.6,355.9c11.238,1.769,21.758,3.539,26.517,4.615,12.505,2.821,24.556,6.408,36.918,14.442-9.66-1.124-39.858-5.571-63.936-9.182" transform="translate(884.07 356.499)" fill="none" stroke="#31d98a" stroke-miterlimit="10" stroke-width="2"/>
    <path id="Path_15344" data-name="Path 15344" d="M139.321,151.613s-4.352-3.658-4.663-3.754c-3.467,0-8.321,0-10.688-.885s-4.662-2.271-4.758-4.256-.6-2.582,1.482-3.467,9.9-4.352,15.853-4.352c3.563,0,8.7,6.743,9.11,7.532s-1.2,2.271-1.2,2.271l.6,3.371A9.438,9.438,0,0,1,139.321,151.613Z" transform="translate(805.705 524.657)" fill="none" stroke="#31d98a" stroke-miterlimit="10" stroke-width="2"/>
    <path id="Path_15345" data-name="Path 15345" d="M36.88,218.132c-.048.167-.311.693-1.793.789a7.111,7.111,0,0,0-1.363.287h-.072l-.048.072c-.693.933-1.745,1.267-3.324,1.267a3.439,3.439,0,0,1-2.678-1.482l-.072-.072h-.072s-.167.024-.43.048c-.717.048-2.821-.024-2.941-1.841-.143-2.2,3.682-2.415,5.547-2.511l.383-.024c2.271-.12,6.025.717,6.814,2.917C36.927,217.94,36.9,218.084,36.88,218.132Z" transform="translate(877.996 463.972)" fill="none" stroke="#31d98a" stroke-miterlimit="10" stroke-width="2"/>
    <path id="Path_15346" data-name="Path 15346" d="M298.794,326.338l-.287-9.086c-2.535-20.109,5.428-37.683,18.411-39.858,13.485-2.248,25.775,12.816,29.29,33.9.311,1.841.526,3.658.693,5.452,0,0,1.865,6.36.693,10.234l.12,5.284,22.906.263" transform="translate(669.545 416.403)" fill="none" stroke="#31d98a" stroke-miterlimit="10" stroke-width="2"/>
    <ellipse id="Ellipse_7" data-name="Ellipse 7" cx="17.215" cy="26.206" rx="17.215" ry="26.206" transform="translate(971.943 705.217) rotate(-3.979)" fill="none" stroke="#31d98a" stroke-miterlimit="10" stroke-width="2"/>
    <g id="Group_6775" data-name="Group 6775" transform="translate(976.827 706.852)">
      <path id="Path_15347" data-name="Path 15347" d="M343.586,375.069l4.3-13.748L337.848,364A27.9,27.9,0,0,0,343.586,375.069Zm6.958-42.369,2.726,14.274,4.854-9.492A12.862,12.862,0,0,0,350.544,332.7Zm3.539,46.6c2.678-.646,5.117-2.63,7.03-5.738l-6.958-9.421Zm-13.749-40.815c-.263.43-.526.861-.765,1.315a28.027,28.027,0,0,0-2.869,9.636l10.5,2.821Zm24.46,16.761a35.881,35.881,0,0,0-.837-5.4l-5.738,6.384,6.623,4.423A37.1,37.1,0,0,0,364.795,355.247Z" transform="translate(-336.7 -332.7)" fill="none" stroke="#31d98a" stroke-miterlimit="10" stroke-width="2"/>
      <ellipse id="Ellipse_8" data-name="Ellipse 8" cx="2.391" cy="3.156" rx="2.391" ry="3.156" transform="translate(13.103 20.3)" fill="none" stroke="#31d98a" stroke-miterlimit="10" stroke-width="2"/>
    </g>
    <path id="Path_15348" data-name="Path 15348" d="M756.8,460.244s57.169-1.65,66.064-10.544" transform="translate(320.474 285.126)" fill="none" stroke="#31d98a" stroke-miterlimit="10" stroke-width="2"/>
    <path id="Path_15349" data-name="Path 15349" d="M97.884,77.923c3.276.335,5.715.574,6.695.669,0,0-8.44-14.442-15.4-21.4-6.6-6.6-13.892-9.4-26.588-9.492,0,0-4.4,16.307-5.093,26.493,2.487.167,8.153.669,14.7,1.267" transform="translate(852.57 591.007)" fill="none" stroke="#31d98a" stroke-miterlimit="10" stroke-width="2"/>
    <path id="Path_15350" data-name="Path 15350" d="M638.7,133.5s7.46,6.121,11.573,9.3" transform="translate(410.336 525.722)" fill="none" stroke="#31d98a" stroke-miterlimit="10" stroke-width="2"/>
    <path id="Path_15351" data-name="Path 15351" d="M671.3,173.1a62.1,62.1,0,0,1,6.862.67" transform="translate(385.531 495.59)" fill="none" stroke="#31d98a" stroke-miterlimit="10" stroke-width="2"/>
    <path id="Path_15352" data-name="Path 15352" d="M598.556,419.564s13.868.215,17.885.263a8.308,8.308,0,0,0,4.328-1.1c1.913-.956,3.515-1.482,3.515-2.367s-3.873-9.134-4.376-9.8-.311-1-2.774-1.339c-2.463-.311-18.2-1.674-18.937-1.722s-.646,1.435-.693,3.276c-.048,1.817-.191,9.779-.239,10.855C597.193,418.7,597.456,419.636,598.556,419.564Z" transform="translate(441.872 320.284)" fill="none" stroke="#31d98a" stroke-miterlimit="10" stroke-width="2"/>
  </g>
</svg>
