<svg xmlns="http://www.w3.org/2000/svg" width="242.141" height="137.191" viewBox="0 0 242.141 137.191">
  <g id="Layer_1" transform="translate(2.025 2)">
    <path id="Path_2247" data-name="Path 2247" d="M285.1,334.669c-30.125.261-76.153.933-96.81,2.482-3.84.288-18.824,1.24-18.824,1.24l-.326-3.026-2.9-.161-4.84,2.742s-9.034,17.423-29.038,17.423S102.508,335.2,102.508,335.2l-4.194,1.129-2.4,1.693s-2.841.5-8.46-.576c-7.482-1.1-21.191-3.14-25.273-5.6,0,0-.732-1.36.209-1.988-1.988-.523-3.872-1.361.157-3.506,0-2.041-.053-2.826-.053-2.826l-2.72-2.564s-.314-20.458,1.413-26.109c.174-.571,3.767-7.169,4.082-7.639s1.151-1.413,1.151-1.413,6.121-7.378,24.906-13.186c12.035-3.244,36.19-9.457,88.426-10.825,8.634-6.754,31.119-19.407,58.391-31.461,0,0,22.229-7.474,60.482-8.157" transform="translate(-59.757 -222.178)" fill="none" stroke="#31d98a" stroke-miterlimit="10" stroke-width="4"/>
    <path id="Path_2248" data-name="Path 2248" d="M486.36,641.924s68.623-1.486,115.576-2.581" transform="translate(-376.947 -532.351)" fill="none" stroke="#31d98a" stroke-miterlimit="10" stroke-width="3"/>
    <path id="Path_2249" data-name="Path 2249" d="M579.482,394.516c-11.137.43-18.212.706-18.212.706" transform="translate(-432.644 -350.316)" fill="none" stroke="#31d98a" stroke-miterlimit="10" stroke-width="3"/>
    <path id="Path_2250" data-name="Path 2250" d="M758.494,382.234c-22.509.807-47.79,1.751-67.435,2.5" transform="translate(-529.146 -341.184)" fill="none" stroke="#31d98a" stroke-miterlimit="10" stroke-width="3"/>
    <path id="Path_2251" data-name="Path 2251" d="M539.227,345.076s-3.83-37.862-1.915-47.291,3.094-14.29,6.63-18.563c5.893-3.683,34.473-23.13,51.268-29.17,14.7-5.285,33.677-9.33,57.241-9.37l-.08.236-8.544,35.8-4.714,14.88a204.607,204.607,0,0,0-.442,34.474l.147,5.009.147,5.893.147,5.893" transform="translate(-414.432 -235.936)" fill="none" stroke="#31d98a" stroke-miterlimit="10" stroke-width="3"/>
    <path id="Path_2252" data-name="Path 2252" d="M689.9,296.128c8.908-.516,20.9-1.348,26.83-1.477,8.683-.189,28.5-1.321,28.5-1.321s5.38-16.234,6.324-19.443.377-5.1-3.02-5.1-18.216.944-26.333,3.115-23.312,9.816-35.3,16.989" transform="translate(-526.061 -256.836)" fill="none" stroke="#31d98a" stroke-miterlimit="10" stroke-width="3"/>
    <path id="Path_2253" data-name="Path 2253" d="M840.87,430.542s-7.483.84-6.185-1.68,8.17-3.589,12.37-3.589,11.454-.076,11.454,2.672-6.8,2.367-6.8,2.367S845.987,433.978,840.87,430.542Z" transform="translate(-635.823 -373.185)" fill="none" stroke="#31d98a" stroke-miterlimit="10" stroke-width="3"/>
    <path id="Path_2254" data-name="Path 2254" d="M83.679,465.685l1.117.279s-1.722,3.957-1.769,5.167,1.024,1.21,2.421,1.21,1.955-.046,2.886,1.49,1.4,2.467,3.165,2.607,11.08-.372,11.08-.372,8.845-9.217,9.963-10.661,1.257-2.234-1.443-2.234-10.289.233-13.873.419-11.359,1.117-12.011.792" transform="translate(-77.058 -401.363)" fill="none" stroke="#31d98a" stroke-miterlimit="10" stroke-width="3"/>
    <path id="Path_2255" data-name="Path 2255" d="M62.456,566.182H74.531a3.631,3.631,0,0,1,3.594,3.091c.431,1.8,2.3,11.285,2.516,13.01s-4.744,5.966-6.828,6.181-9.344-1.006-9.344-1.006" transform="translate(-61.764 -477.954)" fill="none" stroke="#31d98a" stroke-miterlimit="10" stroke-width="3"/>
    <path id="Path_2256" data-name="Path 2256" d="M549.82,254.011l4.291,1.545s-21.544,8.412-60.6,33.561c0,0-13.133-.6-15.364-3" transform="translate(-370.842 -245.847)" fill="none" stroke="#31d98a" stroke-miterlimit="10" stroke-width="3"/>
    <path id="Path_2257" data-name="Path 2257" d="M142.927,412.859s9.28-8.661,44.233-11.29,75.011-6.186,75.011-6.186" transform="translate(-121.596 -350.96)" fill="none" stroke="#31d98a" stroke-miterlimit="10" stroke-width="3"/>
    <path id="Path_2258" data-name="Path 2258" d="M622.459,573.891c-19.51.825-37.882,1.615-47.732,2.076-27.443,1.282-59.759,11.8-59.759,11.8l107.784-3" transform="translate(-398.218 -483.686)" fill="none" stroke="#31d98a" stroke-miterlimit="10" stroke-width="3"/>
    <line id="Line_9" data-name="Line 9" y1="0.069" x2="18.764" transform="translate(25.522 74.634)" fill="none" stroke="#31d98a" stroke-miterlimit="10" stroke-width="3"/>
    <path id="Path_2259" data-name="Path 2259" d="M774.327,237.815s15.844-6.405,55.437-7.665" transform="translate(-591.057 -228.106)" fill="none" stroke="#31d98a" stroke-miterlimit="10" stroke-width="3"/>
    <ellipse id="Ellipse_121" data-name="Ellipse 121" cx="26.16" cy="26.16" rx="26.16" ry="26.16" transform="translate(45.804 74.327)" fill="none" stroke="#31d98a" stroke-miterlimit="10" stroke-width="3"/>
    <path id="Path_2260" data-name="Path 2260" d="M195.6,518.781a37.87,37.87,0,1,1,70.694-2.014" transform="translate(-158.591 -403.704)" fill="none" stroke="#31d98a" stroke-miterlimit="10" stroke-width="4.343"/>
    <path id="Path_2261" data-name="Path 2261" d="M215.2,531.771a32.758,32.758,0,1,1,59.271,2.325" transform="translate(-173.421 -418.533)" fill="none" stroke="#31d98a" stroke-miterlimit="10" stroke-width="3.756"/>
    <path id="Path_2262" data-name="Path 2262" d="M254.14,561.5A23.779,23.779,0,0,0,269,568.586l-.658-17.7Zm27.717,4.675A23.934,23.934,0,0,0,293.466,553.4L275.6,548.6Zm-32.07-31.859a23.919,23.919,0,0,0-1.584,16.864l16.878-7.045Zm36.474-7.977L276.673,543l18.146-1.5A23.82,23.82,0,0,0,286.262,526.343Zm-27.39-1.928,10.4,12.39,4.309-15.7q-1.175-.117-2.382-.118A23.738,23.738,0,0,0,258.871,524.414Z" transform="translate(-199.235 -444.349)" fill="none" stroke="#31d98a" stroke-miterlimit="10" stroke-width="3"/>
    <ellipse id="Ellipse_122" data-name="Ellipse 122" cx="1.175" cy="1.175" rx="1.175" ry="1.175" transform="translate(67.02 95.684)" fill="none" stroke="#31d98a" stroke-miterlimit="10" stroke-width="3"/>
    <ellipse id="Ellipse_123" data-name="Ellipse 123" cx="1.175" cy="1.175" rx="1.175" ry="1.175" transform="translate(72.984 94.54)" fill="none" stroke="#31d98a" stroke-miterlimit="10" stroke-width="3"/>
    <ellipse id="Ellipse_124" data-name="Ellipse 124" cx="1.175" cy="1.175" rx="1.175" ry="1.175" transform="translate(76.034 100.15)" fill="none" stroke="#31d98a" stroke-miterlimit="10" stroke-width="3"/>
    <ellipse id="Ellipse_125" data-name="Ellipse 125" cx="1.175" cy="1.175" rx="1.175" ry="1.175" transform="translate(71.813 104.18)" fill="none" stroke="#31d98a" stroke-miterlimit="10" stroke-width="3"/>
    <ellipse id="Ellipse_126" data-name="Ellipse 126" cx="1.175" cy="1.175" rx="1.175" ry="1.175" transform="translate(66.449 101.566)" fill="none" stroke="#31d98a" stroke-miterlimit="10" stroke-width="3"/>
    <ellipse id="Ellipse_127" data-name="Ellipse 127" cx="2.482" cy="2.482" rx="2.482" ry="2.482" transform="translate(69.705 97.964)" fill="none" stroke="#31d98a" stroke-miterlimit="10" stroke-width="3"/>
    <ellipse id="Ellipse_128" data-name="Ellipse 128" cx="1.175" cy="1.175" rx="1.175" ry="1.175" transform="translate(67.02 95.684)" fill="none" stroke="#31d98a" stroke-miterlimit="10" stroke-width="3"/>
    <ellipse id="Ellipse_129" data-name="Ellipse 129" cx="1.175" cy="1.175" rx="1.175" ry="1.175" transform="translate(72.984 94.54)" fill="none" stroke="#31d98a" stroke-miterlimit="10" stroke-width="3"/>
    <ellipse id="Ellipse_130" data-name="Ellipse 130" cx="1.175" cy="1.175" rx="1.175" ry="1.175" transform="translate(76.034 100.15)" fill="none" stroke="#31d98a" stroke-miterlimit="10" stroke-width="3"/>
    <ellipse id="Ellipse_131" data-name="Ellipse 131" cx="1.175" cy="1.175" rx="1.175" ry="1.175" transform="translate(71.813 104.18)" fill="none" stroke="#31d98a" stroke-miterlimit="10" stroke-width="3"/>
    <ellipse id="Ellipse_132" data-name="Ellipse 132" cx="1.175" cy="1.175" rx="1.175" ry="1.175" transform="translate(66.449 101.566)" fill="none" stroke="#31d98a" stroke-miterlimit="10" stroke-width="3"/>
    <ellipse id="Ellipse_133" data-name="Ellipse 133" cx="2.482" cy="2.482" rx="2.482" ry="2.482" transform="translate(69.705 97.964)" fill="none" stroke="#31d98a" stroke-miterlimit="10" stroke-width="3"/>
    <path id="Path_2263" data-name="Path 2263" d="M623.113,355.854s-2.3-4.485-2.492-4.984a40.778,40.778,0,0,1,10.092-6.1c3.364-1.371,4.734-1,4.734-1s1.682-.062,3.24,2.3,1.869,3.3,1.806,4.361,0,2.99-.561,3.925,0,1.682-2.928,2.3a56.014,56.014,0,0,1-8.036.935C628.159,357.6,626.041,359.467,623.113,355.854Z" transform="translate(-476.773 -312.55)" fill="none" stroke="#31d98a" stroke-miterlimit="10" stroke-width="3"/>
  </g>
</svg>
