<svg xmlns="http://www.w3.org/2000/svg" width="226.392" height="149.27" viewBox="0 0 226.392 149.27">
  <g id="Layer_1" transform="translate(1.591 2)">
    <path id="Path_2264" data-name="Path 2264" d="M951.045,221.121q2.989-.053,6.1-.054c45.344,0,59.043,3.852,61.027,4.249.873-1.032,1.905-1.429,4.286-1.032,2.7-1.587,5.4-3.572,5.4-3.572l1.746.08-1.826,4.366a3.091,3.091,0,0,1,.794,2.3c16.193,2.143,67.868,25.56,69.138,26.116a14.518,14.518,0,0,1,5.953,1.032c3.255,1.27,7.541.714,13.495,1.349s12.78,1.191,15,1.191,7.224-.318,9.287.635a15.281,15.281,0,0,1,3.651,2.461s.08,3.334.159,3.969c.635,1.508,4.366,7.382,3.969,9.922l1.19.714.08,2.937-4.6,5.477s1.509,10,2.3,11.033c-.079,2.381-.317,4.207,1.112,5.318s5.953,3.969,5.953,3.969l-.635,10.16,1.27,1.984-.079,1.667-.556,1.27,2.064,3.016-2.7,3.016-.476,2.937-1.826,1.508s.159,1.429-2.7,2.223-11.271,2.7-11.271,2.7l-.635.556-12.145,2.778-.556.635-25.083,4.842-3.311-3.285-2.474-.33s-7.752,26.721-34.308,26.721-32.494-20.123-32.494-20.123l-3.959-2.309-4.453.165-.839,1.861s-37.863-2.223-53.183-2.223c-4.562,0-15.468.042-29.372.165" transform="translate(-934.519 -220.712)" fill="none" stroke="#31d98a" stroke-linejoin="round" stroke-miterlimit="10" stroke-width="4"/>
    <path id="Path_2265" data-name="Path 2265" d="M937.915,280.185c29.519-1.058,54.685-1.9,59.5-1.9,12.983,0,67.159-1.282,70.364-1.282s11.54.321,11.54-2.4-4.007-3.686-30.454-15.067c-33.98-15.387-59.145-17.15-90.079-18.593q-5.8-.27-11.293-.257l-.087.256-9.3,38.949-5.129,16.189s-2.084,19.394-.481,37.506l.16,5.45.16,6.411.16,6.411v.076c24.425-.569,43.531-1.043,46.642-1.2,9.617-.481,18.433.962,23.882-7.213s23.081-35.743,28.05-44.238,8.975-12.342,5.289-17.471-21.959-34.141-21.959-34.141" transform="translate(-931.895 -235.108)" fill="none" stroke="#31d98a" stroke-miterlimit="10" stroke-width="3"/>
    <path id="Path_2266" data-name="Path 2266" d="M1502.807,480.822s33.531-7.779,37.556-9.121,4.334-3.405,2.064-10.113" transform="translate(-1343.501 -394.375)" fill="none" stroke="#31d98a" stroke-miterlimit="10" stroke-width="3"/>
    <path id="Path_2267" data-name="Path 2267" d="M1623.517,399.832h-25.385c-3.921,0-4.85.722-1.754,4.024s9.184,9.906,10.526,11.454l1.342,1.548,5.882-.206,1.548-2.993,5.469-.516" transform="translate(-1409.629 -349.85)" fill="none" stroke="#31d98a" stroke-miterlimit="10" stroke-width="3"/>
    <path id="Path_2268" data-name="Path 2268" d="M1616.963,572.4s17.21-19.806,19.614-22.5,4.615-3.653,9.134-3.653" transform="translate(-1425.804 -455.41)" fill="none" stroke="#31d98a" stroke-miterlimit="10" stroke-width="3"/>
    <path id="Path_2269" data-name="Path 2269" d="M1662.367,582.425s8.386-10.593,10.694-13,4.135-3.75,6.634-4.23" transform="translate(-1458.538 -469.073)" fill="none" stroke="#31d98a" stroke-miterlimit="10" stroke-width="3"/>
    <path id="Path_2270" data-name="Path 2270" d="M996.346,293.5l54.128-1.586s2.875-7.138,2.875-10.409-4.857-9.616-5.651-10.112-22.306-4.957-38.96-4.659c-5.551.1-6.84-.1-8.129,3.866S996.346,293.5,996.346,293.5Z" transform="translate(-978.362 -253.879)" fill="none" stroke="#31d98a" stroke-miterlimit="10" stroke-width="3"/>
    <path id="Path_2271" data-name="Path 2271" d="M1189.88,420.066s-8.141.914-6.729-1.828,8.889-3.9,13.458-3.9,12.462-.083,12.462,2.908-7.394,2.575-7.394,2.575S1195.446,423.8,1189.88,420.066Z" transform="translate(-1112.922 -360.305)" fill="none" stroke="#31d98a" stroke-miterlimit="10" stroke-width="3"/>
    <line id="Line_10" data-name="Line 10" y1="1.968" x2="70.683" transform="translate(0.928 108.411)" fill="none" stroke="#31d98a" stroke-miterlimit="10" stroke-width="3"/>
    <path id="Path_2272" data-name="Path 2272" d="M1013.85,561.984s-41.86,1.72-79.775,3.323" transform="translate(-933.467 -466.756)" fill="none" stroke="#31d98a" stroke-miterlimit="10" stroke-width="3"/>
    <line id="Line_11" data-name="Line 11" y1="0.427" x2="14.726" transform="translate(69.676 110.51)" fill="none" stroke="#31d98a" stroke-miterlimit="10" stroke-width="3"/>
    <path id="Path_2273" data-name="Path 2273" d="M1569.929,358.051s-4.1-5.416-4.1-7.118a9.591,9.591,0,0,0-2.476-1.7s-34.12-2.476-38.839-5.261c3.094-1.083,3.777-1.79,3.777-1.79" transform="translate(-1359.151 -308.285)" fill="none" stroke="#31d98a" stroke-miterlimit="10" stroke-width="3"/>
    <path id="Path_2274" data-name="Path 2274" d="M1355.6,280.228s-57.33-23.365-65.377-24.758c2.708-1.238,3.946-1.7,3.946-1.7" transform="translate(-1190.235 -244.544)" fill="none" stroke="#31d98a" stroke-miterlimit="10" stroke-width="3"/>
    <path id="Path_2275" data-name="Path 2275" d="M990.477,229.549q7.044-.224,15.019-.232c43.158,0,69.945,8.929,69.945,8.929" transform="translate(-974.131 -226.915)" fill="none" stroke="#31d98a" stroke-miterlimit="10" stroke-width="3"/>
    <ellipse id="Ellipse_134" data-name="Ellipse 134" cx="28.462" cy="28.462" rx="28.462" ry="28.462" transform="translate(96.603 81.276)" fill="none" stroke="#31d98a" stroke-miterlimit="10" stroke-width="3"/>
    <path id="Path_2276" data-name="Path 2276" d="M1234.625,520.814a41.2,41.2,0,1,1,78.664-2.049" transform="translate(-1148.573 -397.786)" fill="none" stroke="#31d98a" stroke-miterlimit="10" stroke-width="4.343"/>
    <path id="Path_2277" data-name="Path 2277" d="M1255.18,535.774a35.64,35.64,0,1,1,64.485,2.529" transform="translate(-1162.952 -412.164)" fill="none" stroke="#31d98a" stroke-miterlimit="10" stroke-width="3.756"/>
    <path id="Path_2278" data-name="Path 2278" d="M1294.489,565.068a25.871,25.871,0,0,0,16.166,7.706l-.716-19.252Zm30.155,5.087a26.04,26.04,0,0,0,12.629-13.9l-19.435-5.227Zm-34.891-34.662a26.026,26.026,0,0,0-1.723,18.348l18.363-7.665Zm39.683-8.679L1319,544.934l19.742-1.627A25.916,25.916,0,0,0,1329.436,526.814Zm-29.8-2.1,11.316,13.48,4.688-17.082q-1.279-.127-2.591-.128A25.826,25.826,0,0,0,1299.636,524.716Z" transform="translate(-1187.984 -437.197)" fill="none" stroke="#31d98a" stroke-miterlimit="10" stroke-width="3"/>
    <ellipse id="Ellipse_135" data-name="Ellipse 135" cx="1.279" cy="1.279" rx="1.279" ry="1.279" transform="translate(119.686 104.511)" fill="none" stroke="#31d98a" stroke-miterlimit="10" stroke-width="3"/>
    <ellipse id="Ellipse_136" data-name="Ellipse 136" cx="1.278" cy="1.278" rx="1.278" ry="1.278" transform="translate(126.174 103.267)" fill="none" stroke="#31d98a" stroke-miterlimit="10" stroke-width="3"/>
    <ellipse id="Ellipse_137" data-name="Ellipse 137" cx="1.279" cy="1.279" rx="1.279" ry="1.279" transform="translate(129.492 109.37)" fill="none" stroke="#31d98a" stroke-miterlimit="10" stroke-width="3"/>
    <ellipse id="Ellipse_138" data-name="Ellipse 138" cx="1.279" cy="1.279" rx="1.279" ry="1.279" transform="translate(124.9 113.755)" fill="none" stroke="#31d98a" stroke-miterlimit="10" stroke-width="3"/>
    <ellipse id="Ellipse_139" data-name="Ellipse 139" cx="1.278" cy="1.278" rx="1.278" ry="1.278" transform="translate(119.064 110.911)" fill="none" stroke="#31d98a" stroke-miterlimit="10" stroke-width="3"/>
    <ellipse id="Ellipse_140" data-name="Ellipse 140" cx="2.701" cy="2.701" rx="2.701" ry="2.701" transform="translate(122.607 106.992)" fill="none" stroke="#31d98a" stroke-miterlimit="10" stroke-width="3"/>
    <ellipse id="Ellipse_141" data-name="Ellipse 141" cx="1.279" cy="1.279" rx="1.279" ry="1.279" transform="translate(119.686 104.511)" fill="none" stroke="#31d98a" stroke-miterlimit="10" stroke-width="3"/>
    <ellipse id="Ellipse_142" data-name="Ellipse 142" cx="1.278" cy="1.278" rx="1.278" ry="1.278" transform="translate(126.174 103.267)" fill="none" stroke="#31d98a" stroke-miterlimit="10" stroke-width="3"/>
    <ellipse id="Ellipse_143" data-name="Ellipse 143" cx="1.279" cy="1.279" rx="1.279" ry="1.279" transform="translate(129.492 109.37)" fill="none" stroke="#31d98a" stroke-miterlimit="10" stroke-width="3"/>
    <ellipse id="Ellipse_144" data-name="Ellipse 144" cx="1.279" cy="1.279" rx="1.279" ry="1.279" transform="translate(124.9 113.755)" fill="none" stroke="#31d98a" stroke-miterlimit="10" stroke-width="3"/>
    <ellipse id="Ellipse_145" data-name="Ellipse 145" cx="1.278" cy="1.278" rx="1.278" ry="1.278" transform="translate(119.064 110.911)" fill="none" stroke="#31d98a" stroke-miterlimit="10" stroke-width="3"/>
    <ellipse id="Ellipse_146" data-name="Ellipse 146" cx="2.701" cy="2.701" rx="2.701" ry="2.701" transform="translate(122.607 106.992)" fill="none" stroke="#31d98a" stroke-miterlimit="10" stroke-width="3"/>
    <path id="Path_2279" data-name="Path 2279" d="M1261.477,289.082l11.965,19.349s26.322-.068,28.168.068,1.709-1.026-1.231-2.6-24.271-11.76-30.9-14.084S1261.477,289.082,1261.477,289.082Z" transform="translate(-1169.511 -270.004)" fill="none" stroke="#31d98a" stroke-miterlimit="10" stroke-width="3"/>
  </g>
</svg>
