<svg xmlns="http://www.w3.org/2000/svg" width="208.905" height="115.461" viewBox="0 0 208.905 115.461">
  <g id="Passengersidefront_front" transform="translate(1.876 2)">
    <path id="Path_15680" data-name="Path 15680" d="M208.329,19.548S194.669,18.5,182.944,18.5s-38.761.987-55.261,4.613A55.1,55.1,0,0,0,116.422,27,220.4,220.4,0,0,0,92.871,41.789s-5.9,1.592-8.884,4.553a3.5,3.5,0,0,0,.907,1.451l-3.828,3.082s-32.294,3.244-42,7.635c0,0-11.322,2.418-17.89,9.811.04.443.242.5.242.5A12.138,12.138,0,0,0,16.678,79.1c-1.612,1.108-2.256,1.511-2.256,2.216s-.564,6.044-.564,6.447a5.067,5.067,0,0,1-.806,1.511,8.151,8.151,0,0,0,.766,2.861c.04,1.571.2,8.3.161,9.912-.6,2.176-2.458,5.641-1.551,6.608s3.787,2.579,10.738,2.176c1.37,1.249,4.029,2.015,8.22,1.914a19.316,19.316,0,0,0,14.908,8.421c9.025.665,12.934.846,19.985-6.286,11.181,1.168,32.8,3.626,35.659,3.385,1.974,1.612,2.78,2.216,12.35,2.055,2.518,3.526,6.346,9.025,15.674,9.509s19.542,1.511,26.291-16.721l3.465.4s17.084-2.861,22.926-3.626c5.319-.685,21.939-2.418,33.765-3.747" transform="translate(-12.182 -18.5)" fill="none" stroke="#31d98a" stroke-miterlimit="10" stroke-width="4"/>
    <path id="Path_15681" data-name="Path 15681" d="M321.057,292.373c3.2,0,14.767-.705,15.976-.806s1.511-1.31,2.337-2.4a65.85,65.85,0,0,0,4.352-6.688c.6-1.37.866-2.76-2.176-2.559-3.042.222-14.828.866-19.219,1.249s-25.626,2.015-25.626,2.015,4.9,5.48,7.817,5.863,7.172-.1,8.8.6C314.912,290.358,319.143,292.373,321.057,292.373Z" transform="translate(-239.381 -227.24)" fill="none" stroke="#31d98a" stroke-miterlimit="10" stroke-width="2"/>
    <path id="Path_15682" data-name="Path 15682" d="M470.606,52.249s-13.921,14.566-21.476,26.674c-12.43-.524-66.966-2.76-73.13-2.438,7.031-5.117,23.732-17.447,32.113-21.8A33.057,33.057,0,0,1,420.342,51.6C438.735,50.114,470.606,52.249,470.606,52.249Z" transform="translate(-302.705 -44.513)" fill="none" stroke="#31d98a" stroke-miterlimit="10" stroke-width="2"/>
    <path id="Path_15683" data-name="Path 15683" d="M84.406,297.271c1.511.141,1.652.282,3.465,2.1s2.236,2.377,3.1,3.183.725,2.1.081,4.392-4.754,17.1-5.48,18.675-1.733,1.813-3.244,1.813-20.267-1.088-33.825-2.377c-2.941-.282-6.346.081-7.132-3.1s-3.2-14.425-2.135-21.133c3.183-2.6,6.85-5.258,7.8-5.48S84.406,297.271,84.406,297.271Z" transform="translate(-33.574 -239.552)" fill="none" stroke="#31d98a" stroke-miterlimit="10" stroke-width="2"/>
    <path id="Path_15684" data-name="Path 15684" d="M83.8,286.438s5.117,5.419,6.205,6.346.645,2.458,0,4.331-5.762,18.756-6.628,20.348-1.874,2.458-4.694,2.458-23.37-.947-38.237-2.881c-2.82-.363-3.747-1.652-4.392-4.392s-3.022-15.069-1.511-20.992c0,0-1.088-1.007,8.8-7.656a93.245,93.245,0,0,0,12.632,1.289C61.659,285.41,83.8,286.438,83.8,286.438Z" transform="translate(-29.643 -230.512)" fill="none" stroke="#31d98a" stroke-miterlimit="10" stroke-width="2"/>
    <path id="Path_15685" data-name="Path 15685" d="M96.7,320.82S58.628,319.551,46.5,318" transform="translate(-39.586 -257.662)" fill="none" stroke="#31d98a" stroke-miterlimit="10" stroke-width="2"/>
    <path id="Path_15686" data-name="Path 15686" d="M92.319,408.664s-37.593-2.1-46.719-3.364" transform="translate(-38.868 -327.375)" fill="none" stroke="#31d98a" stroke-miterlimit="10" stroke-width="2"/>
    <path id="Path_15687" data-name="Path 15687" d="M271.009,294.7s-5.762.342-12.209.04" transform="translate(-209.116 -239.056)" fill="none" stroke="#31d98a" stroke-miterlimit="10" stroke-width="2"/>
    <path id="Path_15688" data-name="Path 15688" d="M277.9,210.344s8.985-6.1,16.883-8.5a311.351,311.351,0,0,1,39.486-8.562c13.9-1.934,32.617-3.989,36.565-4.21a30.724,30.724,0,0,1,6.588.262" transform="translate(-224.368 -154.66)" fill="none" stroke="#31d98a" stroke-miterlimit="10" stroke-width="2"/>
    <path id="Path_15689" data-name="Path 15689" d="M494.4,189.9s-.463,2.055-5.419,2.78-21.415,2.841-28.426,4.392-16.5,2.881-29.756,12.168" transform="translate(-346.465 -155.37)" fill="none" stroke="#31d98a" stroke-miterlimit="10" stroke-width="2"/>
    <path id="Path_15690" data-name="Path 15690" d="M542.181,218s-33.161,3.123-44.261,6.628a124.084,124.084,0,0,0-16.52,6.225" transform="translate(-386.871 -177.808)" fill="none" stroke="#31d98a" stroke-miterlimit="10" stroke-width="2"/>
    <path id="Path_15691" data-name="Path 15691" d="M92.812,219.3c-.322.161-11.685,3.787-12.712,13.014" transform="translate(-66.417 -178.847)" fill="none" stroke="#31d98a" stroke-miterlimit="10" stroke-width="2"/>
    <path id="Path_15692" data-name="Path 15692" d="M57.7,270.4a8.074,8.074,0,0,0,4.291,2.961" transform="translate(-48.53 -219.652)" fill="none" stroke="#31d98a" stroke-miterlimit="10" stroke-width="2"/>
    <path id="Path_15693" data-name="Path 15693" d="M39.271,305.948A3.951,3.951,0,0,1,37.7,304.8" transform="translate(-32.559 -247.122)" fill="none" stroke="#31d98a" stroke-miterlimit="10" stroke-width="2"/>
    <path id="Path_15694" data-name="Path 15694" d="M22.6,385.3a13.22,13.22,0,0,1,3.385,3.586" transform="translate(-20.501 -311.404)" fill="none" stroke="#31d98a" stroke-miterlimit="10" stroke-width="2"/>
    <path id="Path_15695" data-name="Path 15695" d="M27.872,432.7s-1.108,2.579-2.135,2.579S23.5,432.9,23.5,432.9" transform="translate(-21.22 -349.255)" fill="none" stroke="#31d98a" stroke-miterlimit="10" stroke-width="2"/>
    <path id="Path_15696" data-name="Path 15696" d="M930,170.33c5.48-.463,11.383-.947,17.507-1.43" transform="translate(-745.095 -138.6)" fill="none" stroke="#31d98a" stroke-miterlimit="10" stroke-width="2"/>
    <path id="Path_15697" data-name="Path 15697" d="M769.4,186.627s4.09-.4,10.839-1.027" transform="translate(-616.85 -151.936)" fill="none" stroke="#31d98a" stroke-miterlimit="10" stroke-width="2"/>
    <path id="Path_15698" data-name="Path 15698" d="M749.7,124.263s37.27-5.54,56.349-8.361l.947-4.593-1.289-4.231s.343-1.471.866-3.969c.785-4.573.524-21.6.423-26.351,0-2.861-2.236-10.375-2.236-10.375a9.273,9.273,0,0,0-1.632-2.156c-1.108-7.978-6.568-25.747-6.568-25.747V38.4c-6.406.081-16.4,1.733-21.5,5.037-3.989,2.579-8.683,8.038-12.612,13.8s-7.978,11.826-7.978,11.826" transform="translate(-601.119 -34.391)" fill="none" stroke="#31d98a" stroke-miterlimit="10" stroke-width="2"/>
    <path id="Path_15699" data-name="Path 15699" d="M771.7,190.6a42.311,42.311,0,0,1,3.848,14.445c.121,9.146-.242,39.748-.242,39.748" transform="translate(-618.686 -155.929)" fill="none" stroke="#31d98a" stroke-miterlimit="10" stroke-width="2"/>
    <path id="Path_15700" data-name="Path 15700" d="M820.048,359.4c-9.469,1.491-18.333,2.982-22.342,3.888-10.536,2.377-20.69,5.4-31.106,12.168,8.139-.947,33.584-4.694,53.871-7.736" transform="translate(-614.614 -290.722)" fill="none" stroke="#31d98a" stroke-miterlimit="10" stroke-width="2"/>
    <path id="Path_15701" data-name="Path 15701" d="M825.018,152.482s3.667-3.082,3.929-3.163c2.921,0,7.011,0,9.005-.745s3.929-1.914,4.009-3.586.5-2.176-1.249-2.921-8.34-3.667-13.357-3.667c-3,0-7.333,5.681-7.676,6.346s1.007,1.914,1.007,1.914l-.5,2.841A7.866,7.866,0,0,0,825.018,152.482Z" transform="translate(-656.956 -114.245)" fill="none" stroke="#31d98a" stroke-miterlimit="10" stroke-width="2"/>
    <path id="Path_15702" data-name="Path 15702" d="M972.44,220.721c.685-1.853,3.828-2.559,5.742-2.458l.322.02c1.551.081,4.795.262,4.674,2.115-.1,1.511-1.873,1.571-2.478,1.551-.222-.02-.362-.04-.362-.04h-.061l-.06.06a2.841,2.841,0,0,1-2.256,1.249,3.154,3.154,0,0,1-2.8-1.068l-.04-.06h-.06a3.772,3.772,0,0,0-1.148-.242c-1.249-.06-1.471-.524-1.511-.665A.638.638,0,0,1,972.44,220.721Z" transform="translate(-778.933 -178.011)" fill="none" stroke="#31d98a" stroke-miterlimit="10" stroke-width="2"/>
    <path id="Path_15703" data-name="Path 15703" d="M508.919,322.1l.242-7.656c2.136-16.943-4.573-31.75-15.512-33.584-11.362-1.894-21.718,10.8-24.679,28.567-.262,1.551-.443,3.082-.584,4.593,0,0-1.571,5.359-.584,8.622l-.1,4.452-19.3.222" transform="translate(-360.519 -227.854)" fill="none" stroke="#31d98a" stroke-miterlimit="10" stroke-width="2"/>
    <ellipse id="Ellipse_135" data-name="Ellipse 135" cx="22.08" cy="14.505" rx="22.08" ry="14.505" transform="translate(113.379 104.653) rotate(-86.021)" fill="none" stroke="#31d98a" stroke-miterlimit="10" stroke-width="2"/>
    <g id="Group_6792" data-name="Group 6792" transform="translate(117.48 64.004)">
      <path id="Path_15704" data-name="Path 15704" d="M618.143,362.571l-8.461-2.256,3.626,11.584A23.771,23.771,0,0,0,618.143,362.571Zm-17.1-22.342,4.09,8,2.3-12.027A10.9,10.9,0,0,0,601.039,340.229Zm3.344,22.443-5.862,7.938a9.991,9.991,0,0,0,5.923,4.835Zm5.883-9.993,8.844-2.377a23.184,23.184,0,0,0-2.418-8.119c-.2-.383-.423-.766-.645-1.108Zm-14.888,7.051L600.958,356l-4.835-5.379a29.839,29.839,0,0,0-.705,4.553A34.455,34.455,0,0,0,595.378,359.731Z" transform="translate(-595.321 -336.2)" fill="none" stroke="#31d98a" stroke-miterlimit="10" stroke-width="2"/>
      <ellipse id="Ellipse_136" data-name="Ellipse 136" cx="2.015" cy="2.659" rx="2.015" ry="2.659" transform="translate(8.699 17.104)" fill="none" stroke="#31d98a" stroke-miterlimit="10" stroke-width="2"/>
    </g>
    <path id="Path_15705" data-name="Path 15705" d="M72.484,462.085S24.315,460.694,16.8,453.2" transform="translate(-15.87 -365.625)" fill="none" stroke="#31d98a" stroke-miterlimit="10" stroke-width="2"/>
    <path id="Path_15706" data-name="Path 15706" d="M801.241,76.665c-2.76.282-4.815.484-5.641.564,0,0,7.112-12.168,12.974-18.031,5.56-5.56,11.7-7.917,22.4-8,0,0,3.707,13.74,4.291,22.322-2.1.141-6.87.564-12.39,1.068" transform="translate(-637.772 -44.612)" fill="none" stroke="#31d98a" stroke-miterlimit="10" stroke-width="2"/>
    <path id="Path_15707" data-name="Path 15707" d="M372.651,137s-6.286,5.157-9.751,7.837" transform="translate(-292.244 -113.127)" fill="none" stroke="#31d98a" stroke-miterlimit="10" stroke-width="2"/>
    <path id="Path_15708" data-name="Path 15708" d="M355.782,176.6a52.322,52.322,0,0,0-5.782.564" transform="translate(-281.943 -144.749)" fill="none" stroke="#31d98a" stroke-miterlimit="10" stroke-width="2"/>
    <path id="Path_15709" data-name="Path 15709" d="M361.377,420.534s-11.685.181-15.069.222a7,7,0,0,1-3.646-.927c-1.612-.806-2.962-1.249-2.962-1.994s3.264-7.7,3.687-8.26.262-.846,2.337-1.128c2.075-.262,15.331-1.41,15.956-1.451s.544,1.209.584,2.76c.04,1.531.161,8.24.2,9.146C362.526,419.809,362.324,420.575,361.377,420.534Z" transform="translate(-273.718 -328.728)" fill="none" stroke="#31d98a" stroke-miterlimit="10" stroke-width="2"/>
  </g>
</svg>
