<svg xmlns="http://www.w3.org/2000/svg" width="240.002" height="144.254" viewBox="0 0 240.002 144.254">
  <g id="Driverrearside_rear" transform="translate(0.846 2.155)">
    <path id="Path_15446" data-name="Path 15446" d="M43.8,20.675c3.7-.378,6.67-.428,8.432-.554,4.531-.453,20.212-1.611,24.214-1.787s23.433-.2,27.989-.2,21.118.956,21.118.956L127.716,17l1.082.2-.579,2.24L140.15,20.65c4.732.478,6.066.529,12.786,1.535a67.544,67.544,0,0,1,17.493,4.807c7.073,2.794,15.656,7.45,21.269,10.546s12.786,7.6,16.486,9.867,6.67,4.329,9.011,5.361a56,56,0,0,0,9.338,2.794c2.718.554,5.462.982,6.947,1.41s1.812.554,2.341,1.46a55.052,55.052,0,0,0,3.9,5.839s.1,1.636.1,3.876a12.854,12.854,0,0,0,2.97,2.92,38.068,38.068,0,0,1,.68,4c.4,2.97.982,5.865,1.435,9.187a73.633,73.633,0,0,1,.352,9.766c0,2.744,3.3,6.293,3.3,6.293s-.05,3.549-.05,5.814a10.2,10.2,0,0,1-1.032,4.229,6.854,6.854,0,0,1,1.258,2.441,17.308,17.308,0,0,1-1.133,3.423,2.472,2.472,0,0,1,.5,1.259c.1.805-1.762,6.267-2.844,7.979s-16.361,4.858-20.463,5.009c-.2,0-.453,0-.73.025a21.887,21.887,0,0,1-17.267,17.72,79.13,79.13,0,0,1-8.306,1.007A21.909,21.909,0,0,1,177.3,132.833c-34.709,1.888-75.485,4.2-75.485,4.2s-.6.1-1.611.227c-2.869,11.478-9.187,19.456-16.688,19.607-2.341.05-10.9.176-13.214.227-8.054.151-15.1-8.835-18.1-21.621C45.762,134.267,29.829,131.4,14.4,128.6" transform="translate(-11.577 -17)" fill="none" stroke="#31d98a" stroke-miterlimit="10" stroke-width="4"/>
    <path id="Path_15447" data-name="Path 15447" d="M260.225,53.344s-27.31-7.1-85.125-.831c0,0,15.706,12.862,26.529,24.163,8.407-.4,96.854-1.435,98.969-1.435A366.846,366.846,0,0,0,260.225,53.344Z" transform="translate(-103.89 -41.641)" fill="none" stroke="#31d98a" stroke-miterlimit="10" stroke-width="2"/>
    <path id="Path_15448" data-name="Path 15448" d="M203.586,165.9c-17.669-1.183-44.324-.78-60.861.478S113.2,169.6,113.2,169.6" transform="translate(8.702 -127.896)" fill="none" stroke="#31d98a" stroke-miterlimit="10" stroke-width="2"/>
    <path id="Path_15449" data-name="Path 15449" d="M52.224,156.2s1.988,2.265,9.766,3.65,14.523,3,14.523,3l1.309,1.686A5.386,5.386,0,0,0,78.677,167c.906,1.686,1.938,4.178,1.938,4.178l.126,4.48,2.064,2.114-.906,8.18s4.682,9.665,7.324,13.315,2.391,3.9,7.551,3.9S171,200.4,174.55,200.273c1.611-.05,2.794-1.384,3.927-5.286.7-3.851,1.661-11.7,1.661-11.7l1.888-4.833.025-1.586a2.535,2.535,0,0,0-.73-2.467c-1.032-.831-1.158-1.334-1.158-1.334l.176-4.128s-1.686-4.581-1.485-5.99" transform="translate(45.516 -121.164)" fill="none" stroke="#31d98a" stroke-miterlimit="10" stroke-width="2"/>
    <path id="Path_15450" data-name="Path 15450" d="M152.139,204.8a16.987,16.987,0,0,1-4.3,1.41c-2.593.5-10.8,1.611-12.157,2.416a12.827,12.827,0,0,0-2.895,3.02s-46.237,1.183-50.944,1.107c-3.146-2.341-3.826-3.02-6.418-3.222s-24.767-.629-25.22-.654" transform="translate(76.007 -157.531)" fill="none" stroke="#31d98a" stroke-miterlimit="10" stroke-width="2"/>
    <path id="Path_15451" data-name="Path 15451" d="M170.233,227.559a158.183,158.183,0,0,1-18.424.906c-1.863-2.794-4.128-6.091-4.128-6.091s-45.256.831-53.512,1.334c-2.265,1.863-9.187,5.99-12.384,6.8-5.865,0-30.1.3-33.7.3a11.947,11.947,0,0,1-2.895,2.895H39.727s-5.764-9.892-6.494-13.919.3-3.7,2.467-3.7,28.266,1.233,28.266,1.233" transform="translate(62.241 -165.968)" fill="none" stroke="#31d98a" stroke-miterlimit="10" stroke-width="2"/>
    <path id="Path_15452" data-name="Path 15452" d="M578.413,286.1a56.513,56.513,0,0,1,.881,8.155c-.126,2.366-1.309,2.341-8.986,3.9s-22.452,4.858-22.452,4.858" transform="translate(-476.42 -218.368)" fill="none" stroke="#31d98a" stroke-miterlimit="10" stroke-width="2"/>
    <path id="Path_15453" data-name="Path 15453" d="M178.529,348s-35.515,1.888-51.548,2.467-58.671,2.064-67.38,2.442-39.24,2.039-44.5,2.139" transform="translate(58.451 -264.688)" fill="none" stroke="#31d98a" stroke-miterlimit="10" stroke-width="2"/>
    <path id="Path_15454" data-name="Path 15454" d="M158.339,387.9s-25.5,1.561-39.618,2.089-50.038,2.29-62.271,2.618-17.493.3-18.953.3-2.92-.1-4.178,1.686S19.4,414.278,19.4,414.278" transform="translate(77.559 -294.545)" fill="none" stroke="#31d98a" stroke-miterlimit="10" stroke-width="2"/>
    <path id="Path_15455" data-name="Path 15455" d="M420.588,393.949a25.776,25.776,0,0,0-2.089-2.819c-.73-.73-1.686-.73-5.034-.73s-20.614.529-23.962.73-5.135-.2-9.942,6.293S366.9,416.275,366.9,416.275" transform="translate(-272.156 -296.415)" fill="none" stroke="#31d98a" stroke-miterlimit="10" stroke-width="2"/>
    <path id="Path_15456" data-name="Path 15456" d="M35.622,419.8s-11.15.629-12.736.805-2.039.755-3.171,1.712a25.254,25.254,0,0,0-2.114,2.039,13.3,13.3,0,0,0,1.812,1.762c.831.6.931.654,2.517.529s11.729-1.108,11.729-1.108" transform="translate(200.729 -318.415)" fill="none" stroke="#31d98a" stroke-miterlimit="10" stroke-width="2"/>
    <path id="Path_15457" data-name="Path 15457" d="M31.507,373.183s0-.579-2.441-.5-7.828.5-9.187.629a3.149,3.149,0,0,0-2.869,1.661c-.805,1.259-1.41,2.416-1.41,2.416" transform="translate(205.347 -283.15)" fill="none" stroke="#31d98a" stroke-miterlimit="10" stroke-width="2"/>
    <path id="Path_15458" data-name="Path 15458" d="M358.743,439.071c-.982,0-2.693-.05-3.725,1.384s-2.114,3.046-2.744,4.077.554,1.108,1.888,1.082,21.042-.68,22.452-.68a4.893,4.893,0,0,0,3-.856c1.057-.6,3.65-2.416,3.65-2.416s-1.284-1.963-1.837-2.567-1.158-.73-2.618-.654S358.743,439.071,358.743,439.071Z" transform="translate(-231.101 -332.35)" fill="none" stroke="#31d98a" stroke-miterlimit="10" stroke-width="2"/>
    <path id="Path_15459" data-name="Path 15459" d="M671.8,29.628s17.82-1.535,30.557,7.979" transform="translate(-630.668 -26.382)" fill="none" stroke="#31d98a" stroke-miterlimit="10" stroke-width="2"/>
    <path id="Path_15460" data-name="Path 15460" d="M601.609,333.288a61.973,61.973,0,0,1-3.071-12.434c-2.769-19.557,3.725-36.648,14.523-38.183s21.8,13.088,24.591,32.646a56.482,56.482,0,0,1-.982,22.15l15.907-1.686" transform="translate(-562.289 -215.719)" fill="none" stroke="#31d98a" stroke-miterlimit="10" stroke-width="2"/>
    <path id="Path_15461" data-name="Path 15461" d="M723.078,304.469a13.66,13.66,0,0,0-7.626-2.869c-10.295,0-18.651,13.818-18.651,30.859,0,5.789.453,11.226,2.14,15.857" transform="translate(-657.682 -229.966)" fill="none" stroke="#31d98a" stroke-miterlimit="10" stroke-width="2"/>
    <ellipse id="Ellipse_21" data-name="Ellipse 21" cx="12.963" cy="27.234" rx="12.963" ry="27.234" transform="translate(41.232 78.782)" fill="none" stroke="#31d98a" stroke-miterlimit="10" stroke-width="2"/>
    <path id="Path_15462" data-name="Path 15462" d="M660.854,89.7s-1.888,13.466-2.19,18.8c2.718.227,14.12.5,15.58.529s.831-1.435.831-1.435S667.02,93.979,660.854,89.7Z" transform="translate(-600.215 -71.402)" fill="none" stroke="#31d98a" stroke-miterlimit="10" stroke-width="2"/>
    <path id="Path_15463" data-name="Path 15463" d="M750.031,52.8s-11.5,18.878-15.631,30.154c4.908,0,34.508-.554,34.508-.554s2.215-16.184,4.531-24.994C769.789,55.518,761.835,52.9,750.031,52.8Z" transform="translate(-717.507 -43.79)" fill="none" stroke="#31d98a" stroke-miterlimit="10" stroke-width="2"/>
    <line id="Line_125" data-name="Line 125" x1="5.915" y1="0.78" transform="translate(30.057 102.97)" fill="none" stroke="#31d98a" stroke-miterlimit="10" stroke-width="2"/>
    <path id="Path_15464" data-name="Path 15464" d="M691.705,48.726s-.629,6.041-1.359,10.546-1.988,16.99-2.064,17.544-1.032,1.435-1.032,1.435a5.884,5.884,0,0,1-1.51,2.844c-1.108.931-2.693,2.29-2.693,2.29l-.478,1.988S676.779,95.14,674.162,101a109.878,109.878,0,0,0-8.407,29.046c-1.913,8.885-2.14,9.514-2.14,9.514s-.2,3.826-7.9,3.348c-2.517-.151-10.37-.906-19.783-1.913a30.338,30.338,0,0,1-1.183-5.915l1.636-4.984s-.2-.881-1.636-5.235c-2.039-15.681-1.082-24.063.126-32.973a43.467,43.467,0,0,1,8.659-13.567c4.43-10.219,20.589-35.037,20.589-35.037,15.052-.73,25.673,4.38,29.2,6.595,5.462,3.423,16.285,16.788,20.211,21.747s-1.661,5.839-5.084,5.588c0,0-41.958.5-64.914.931" transform="translate(-633.558 -36.62)" fill="none" stroke="#31d98a" stroke-miterlimit="10" stroke-width="2"/>
    <g id="Group_6782" data-name="Group 6782" transform="translate(42.667 80.921)">
      <path id="Path_15465" data-name="Path 15465" d="M705.967,388.488c-2.769-.831-5.236-3.8-7.023-8.13l7.173-9.388Zm12.962-28.014H710.8l5.562-12.912A43.321,43.321,0,0,1,718.93,360.473Zm-4.858,23.786-1.938-14.12,5.739,4.506A29.592,29.592,0,0,1,714.072,384.259ZM707.528,338.5a7.529,7.529,0,0,1,1.082.1l-.956,14.347-5.109-11.981A6.942,6.942,0,0,1,707.528,338.5Zm-10.219,13.466,7.073,10.144-8.306,4.48c-.05-.982-.075-1.963-.075-2.97A50.466,50.466,0,0,1,697.309,351.966Z" transform="translate(-696 -338.5)" fill="none" stroke="#31d98a" stroke-miterlimit="10" stroke-width="2"/>
      <ellipse id="Ellipse_22" data-name="Ellipse 22" cx="1.586" cy="3.222" rx="1.586" ry="3.222" transform="translate(10.395 22.074)" fill="none" stroke="#31d98a" stroke-miterlimit="10" stroke-width="2"/>
    </g>
    <path id="Path_15466" data-name="Path 15466" d="M835.2,408.1c10.874.906,19.985,1.712,22.1,1.988,5.261.73,7.249,0,7.249,0" transform="translate(-833.988 -309.66)" fill="none" stroke="#31d98a" stroke-miterlimit="10" stroke-width="2"/>
    <path id="Path_15467" data-name="Path 15467" d="M858.038,368.681s-16.939-.5-31.538-.881" transform="translate(-825.288 -279.504)" fill="none" stroke="#31d98a" stroke-miterlimit="10" stroke-width="2"/>
    <path id="Path_15468" data-name="Path 15468" d="M797.5,225.262s3.926.4,3.222-2.039-4.3-3.121-6.494-2.869-5.99.6-5.965,3.348,3.574,1.963,3.574,1.963S794.833,229.012,797.5,225.262Z" transform="translate(-758.433 -169.133)" fill="none" stroke="#31d98a" stroke-miterlimit="10" stroke-width="2"/>
  </g>
</svg>
