<svg xmlns="http://www.w3.org/2000/svg" width="193.135" height="149.389" viewBox="0 0 193.135 149.389">
  <g id="Rearside" transform="translate(2.002 2)">
    <path id="Path_15098" data-name="Path 15098" d="M47.3,141.076s-.8,15.706-2.083,19.125c-1.255,3.419-3.873,4.487-7.292,4.487H28.845c-3.339,0-8.815.08-9.616-10.6s-.694-33.9-.347-40.094c0-8.815-.454-24.174.988-28.234,1.442-4.033,5.209-13.676,7.185-16.641,0-1.629-.053-1.656,1.122-2.27s5.289-2.431,6.491-4.087c-1.87-.053-4.541-.027-6.357-.775a18.309,18.309,0,0,1-3.5-1.923c-.294-.214-.427-.347-.561-1.149s-.321-2.19-.347-2.591-.16-.694.614-1.149,8.467-5.182,17.336-4.648c0,0,7.078-16.08,14.157-25.028.775-.962,3.152-3.419,4.407-3.526s1.549.321,1.549.321S89.452,19.3,113.679,19.3,164.4,22.292,164.4,22.292s.267-.481,1.549-.321,3.633,2.564,4.407,3.526c7.078,8.948,14.157,25.028,14.157,25.028,8.868-.534,16.561,4.167,17.336,4.648s.668.748.614,1.149c-.027.4-.24,1.79-.347,2.591s-.24.935-.561,1.149a18.311,18.311,0,0,1-3.5,1.923c-1.816.748-4.487.721-6.357.775,1.2,1.656,5.316,3.472,6.491,4.087s1.122.668,1.122,2.27c1.977,2.965,5.743,12.581,7.185,16.641s.988,19.419.988,28.234c.347,6.2.454,29.409-.347,40.094s-6.3,10.6-9.616,10.6h-9.082c-3.419,0-6.037-1.068-7.292-4.487s-1.977-18.992-1.977-18.992" transform="translate(-18.619 -19.3)" fill="none" stroke="#31d98a" stroke-miterlimit="10" stroke-width="4"/>
    <path id="Path_15099" data-name="Path 15099" d="M236.919,30.4c7.185,4.087,16.775,33.416,16.775,33.416C199.416,60.21,117.6,63.335,117.6,63.335s9.723-27.78,16.908-32.935" transform="translate(-91.161 -27.435)" fill="none" stroke="#31d98a" stroke-miterlimit="10" stroke-width="2"/>
    <path id="Path_15100" data-name="Path 15100" d="M158.8,51.62a620.841,620.841,0,0,1,114.3.107" transform="translate(-121.356 -41.096)" fill="none" stroke="#31d98a" stroke-miterlimit="10" stroke-width="2"/>
    <path id="Path_15101" data-name="Path 15101" d="M252.556,153.8s.962,4.3.053,6.945-.721,3.179-.908,5.9c-.187,2.7-.267,10.23-.588,13.836s-1.175,6.464-2.912,11.058-4.327,12.768-9.963,12.982H130.7c-5.609-.214-8.2-8.387-9.963-12.982-1.736-4.594-2.591-7.452-2.912-11.058s-.427-11.112-.588-13.836,0-3.259-.908-5.9.053-6.945.053-6.945" transform="translate(-89.944 -117.873)" fill="none" stroke="#31d98a" stroke-miterlimit="10" stroke-width="2"/>
    <path id="Path_15102" data-name="Path 15102" d="M89.4,439.5c2.992,0,20.728.24,21.876.24a4.94,4.94,0,0,1,3.686,1.229,22.579,22.579,0,0,1,2.831,2.751s-4.594,2.831-7,2.831c-2.377,0-22.117-.534-23.479-.534-1.389,0-1.309-.775-1.149-2a14.268,14.268,0,0,1,.908-3.686C87.448,439.634,88.249,439.5,89.4,439.5Z" transform="translate(-68.061 -327.26)" fill="none" stroke="#31d98a" stroke-miterlimit="10" stroke-width="2"/>
    <path id="Path_15103" data-name="Path 15103" d="M570.494,439.5c-2.992,0-20.728.24-21.876.24a4.941,4.941,0,0,0-3.686,1.229,24.968,24.968,0,0,0-2.831,2.751s4.594,2.831,7,2.831c2.377,0,22.117-.534,23.479-.534,1.389,0,1.309-.775,1.148-2a14.272,14.272,0,0,0-.908-3.686C572.417,439.66,571.642,439.5,570.494,439.5Z" transform="translate(-402.272 -327.26)" fill="none" stroke="#31d98a" stroke-miterlimit="10" stroke-width="2"/>
    <path id="Path_15104" data-name="Path 15104" d="M19.3,375.512a86.074,86.074,0,0,0,1.389,12.581c1.175,5.636,1.736,7.078.694,8.975-1.042,1.87-1.6,2.564-.775,3.74a24.744,24.744,0,0,0,2.511,2.778l5.823.427,7.212-4.033s28.982-.08,39.452.134c10.5.214,58.765.267,67.953.214,9.162-.08,47.947-.347,47.947-.347s6.17,3.9,6.731,4.033,6.037-.134,6.037-.134,2.431-3.552,2.778-4.167-1.736-3.259-1.389-5.636,2.217-14.317,2.217-21.876" transform="translate(-19.118 -277.936)" fill="none" stroke="#31d98a" stroke-miterlimit="10" stroke-width="2"/>
    <path id="Path_15105" data-name="Path 15105" d="M50.6,199.78s3.232,3.152,21.93,4.06c18.7.881,25.376,2.538,27.3,3.98s.748,2.137,4.808,2.057,64.641.134,66.4,0c2.885-2.831,4.674-3.793,11.139-4.327s33.549-1.229,40.28-5.85" transform="translate(-42.058 -151.513)" fill="none" stroke="#31d98a" stroke-miterlimit="10" stroke-width="2"/>
    <path id="Path_15106" data-name="Path 15106" d="M19.6,365.3s2.8-1.6,15.092-1.6,151.185.534,156.26.534,14.958-.4,16.962,1.068" transform="translate(-19.338 -271.707)" fill="none" stroke="#31d98a" stroke-miterlimit="10" stroke-width="2"/>
    <path id="Path_15107" data-name="Path 15107" d="M639.6,136.2s3.74,9.456,7.479,12.688" transform="translate(-473.729 -104.975)" fill="none" stroke="#31d98a" stroke-miterlimit="10" stroke-width="2"/>
    <path id="Path_15108" data-name="Path 15108" d="M85.885,136.2s-3.366,9.4-7.185,12.234c0,0,.908,3.793,6.25,1.523s20.568-4.407,35.927-4.808,47.145-1.068,64.107-.267,38.331,2.671,42.471,3.873,6.2,3.9,8.254-.321" transform="translate(-62.652 -104.975)" fill="none" stroke="#31d98a" stroke-miterlimit="10" stroke-width="2"/>
    <path id="Path_15109" data-name="Path 15109" d="M19.9,243.034s4.674-3.766,6.491-4.434c1.816-.641,2.217-2.858,2.083-7.933s-1.442-17.309,3.5-24.067" transform="translate(-19.558 -156.57)" fill="none" stroke="#31d98a" stroke-miterlimit="10" stroke-width="2"/>
    <path id="Path_15110" data-name="Path 15110" d="M692.373,243.034s-4.674-3.766-6.491-4.434-2.217-2.858-2.083-7.933,1.443-17.309-3.5-24.067" transform="translate(-503.557 -156.57)" fill="none" stroke="#31d98a" stroke-miterlimit="10" stroke-width="2"/>
    <path id="Path_15111" data-name="Path 15111" d="M51.8,256.3l1.736.107,2.351-3.072s31.893.561,34.19.561,10.311-6.063,11.379-7.292h72.28s8.521,7.052,10.978,7.052,34.19-.214,34.19-.214l2.137,2.912,2.244.053" transform="translate(-42.937 -185.885)" fill="none" stroke="#31d98a" stroke-miterlimit="10" stroke-width="2"/>
    <path id="Path_15112" data-name="Path 15112" d="M55.371,427.926s-.187-10.257,1.015-16.454,1.2-6.785,11.78-6.518,55.933.508,69.93.427,74.311-.427,78.5-.508,6.357.267,7.132,4.3.962,18.778.962,18.778" transform="translate(-45.547 -301.876)" fill="none" stroke="#31d98a" stroke-miterlimit="10" stroke-width="2"/>
    <path id="Path_15113" data-name="Path 15113" d="M82.831,393.467a7.4,7.4,0,0,0-6.357-4.14c-4.915-.454-21.1-.668-25-.347-3.9.347-5.022,1.576-5.583,5.583s-1.79,18.324-1.79,21.315" transform="translate(-37.294 -290.121)" fill="none" stroke="#31d98a" stroke-miterlimit="10" stroke-width="2"/>
    <path id="Path_15114" data-name="Path 15114" d="M559.2,393.467a7.4,7.4,0,0,1,6.357-4.14c4.915-.454,21.1-.668,25-.347,3.9.347,5.022,1.576,5.583,5.583s1.79,18.324,1.79,21.315" transform="translate(-414.804 -290.121)" fill="none" stroke="#31d98a" stroke-miterlimit="10" stroke-width="2"/>
  </g>
</svg>
