<svg xmlns="http://www.w3.org/2000/svg" width="72" height="72" viewBox="0 0 72 72">
  <g id="noun_back_4406551" transform="translate(-20.9 -21.1)">
    <g id="Group_4179" data-name="Group 4179" transform="translate(21.9 22.1)">
      <path id="Path_2130" data-name="Path 2130" d="M69.027,52.411h-27.3l5.461-7.716a1.187,1.187,0,1,0-1.9-1.424l-6.766,9.615h0a.414.414,0,0,1-.119.237v.712a.414.414,0,0,0,.119.237h0l6.766,9.615a1.08,1.08,0,0,0,.95.475,1.687,1.687,0,0,0,.712-.237,1.065,1.065,0,0,0,.237-1.662l-5.461-7.716h27.3a1.122,1.122,0,0,0,1.187-1.187C70.214,52.648,69.62,52.411,69.027,52.411Z" transform="translate(-19.191 -18.596)" stroke="#000" stroke-linecap="round" stroke-width="2"/>
      <path id="Path_2131" data-name="Path 2131" d="M56.9,22.1a35,35,0,1,0,35,35A35.088,35.088,0,0,0,56.9,22.1Zm0,67.651A32.651,32.651,0,1,1,89.551,57.1,32.732,32.732,0,0,1,56.9,89.751Z" transform="translate(-21.9 -22.1)" stroke="#000" stroke-linecap="round" stroke-width="2"/>
    </g>
  </g>
</svg>
